<svg width="187" height="48" viewBox="0 0 187 48" fill="none" xmlns="http://www.w3.org/2000/svg">
<g clip-path="url(#clip0_159_1545)">
<path fill-rule="evenodd" clip-rule="evenodd" d="M12.5701 40.7031L26.7934 16.076L19.7245 20.152L5.50516 44.7722L0 47.943H26.1663L23.8864 44.7796L23.886 44.7791L26.7648 39.8195L26.8219 30.5558L20.9501 40.7031L23.886 44.7791L5.50118 44.7791L12.5701 40.7031Z" fill="#FDBC5A"/>
<path fill-rule="evenodd" clip-rule="evenodd" d="M0 47.943L18.4418 16.076H26.7933L19.7245 20.152L5.50122 44.7791L5.50119 44.7791L0 47.943ZM23.886 44.7791L20.9502 40.7031H12.5701L5.50122 44.7791H23.886ZM23.886 44.7791L26.1789 47.9212L26.1948 47.943L31.525 38.7078L26.8219 30.5558L26.7649 39.8195L23.886 44.7791Z" fill="#F79052"/>
<path d="M27.1923 7.2399H22.4893L45.6056 47.2589H53.9857L48.8836 44.7791L27.1923 7.2399Z" fill="#87C7ED"/>
<path d="M22.4893 7.23991H27.1923L48.8836 44.7791L53.9857 47.2589L26.6793 0L22.4893 7.23991Z" fill="#194FA2"/>
</g>
<path d="M89.904 29.876H83.016L81.624 33.5H77.952L85.056 16.148H87.864L94.968 33.5H91.296L89.904 29.876ZM89.232 27.188L86.448 19.94L83.664 27.188H89.232ZM96.2916 21.74H99.7476V27.908C99.7476 30.308 100.252 31.124 101.764 31.124C103.468 31.124 104.092 30.14 104.092 27.428V21.74H107.548V33.5H104.452L104.284 32.348C103.204 33.452 102.268 33.812 100.612 33.812C98.7876 33.812 97.4676 33.14 96.8436 31.844C96.4596 31.052 96.2916 29.852 96.2916 28.052V21.74ZM111.071 24.428H109.415V21.74H111.191L111.431 18.284L114.455 17.876V21.74H117.479V24.428H114.455V28.7C114.455 30.476 114.767 30.932 116.015 30.932C116.447 30.932 116.735 30.884 117.239 30.716L117.791 33.404C116.711 33.644 116.015 33.716 115.055 33.716C113.159 33.716 112.127 33.26 111.575 32.18C111.167 31.412 111.071 30.668 111.071 28.46V24.428ZM125.285 21.428C129.365 21.428 131.813 23.756 131.813 27.62C131.813 31.484 129.365 33.812 125.285 33.812C121.133 33.812 118.733 31.508 118.733 27.524C118.733 23.756 121.229 21.428 125.285 21.428ZM125.285 23.996C123.389 23.996 122.285 25.316 122.285 27.572C122.285 29.948 123.341 31.244 125.285 31.244C127.181 31.244 128.261 29.924 128.261 27.62C128.261 25.316 127.181 23.996 125.285 23.996ZM134.239 33.5V21.74H137.335L137.527 22.892C138.607 21.788 139.519 21.428 141.151 21.428C142.951 21.428 144.151 22.052 144.775 23.3C145.855 21.956 146.983 21.428 148.783 21.428C150.583 21.428 151.855 22.124 152.479 23.42C152.863 24.236 153.031 25.412 153.031 27.284V33.5H149.575V27.428C149.575 24.956 149.095 24.116 147.655 24.116C146.023 24.116 145.375 25.124 145.375 27.74V33.5H141.919V27.38C141.919 24.98 141.415 24.116 139.999 24.116C139.087 24.116 138.415 24.5 138.055 25.244C137.791 25.796 137.695 26.492 137.695 27.812V33.5H134.239Z" fill="#194FA2"/>
<path d="M156.325 33.5V16.364H159.925V23.228H166.405V16.364H170.005V33.5H166.405V26.06H159.925V33.5H156.325ZM177.124 26.684V33.5H173.668V16.364H178.996C181.324 16.364 182.788 16.7 183.844 17.516C184.972 18.356 185.62 19.796 185.62 21.452C185.62 22.916 185.02 24.212 183.988 24.932C183.268 25.46 182.284 25.916 181.54 26.108L186.772 33.5H182.956L178.252 26.684H177.124ZM177.124 24.092H178.972C180.22 24.092 180.892 23.924 181.348 23.468C181.756 23.036 182.068 22.22 182.068 21.572C182.068 20.828 181.708 19.964 181.204 19.58C180.796 19.244 180.172 19.1 179.068 19.1H177.124V24.092Z" fill="#F79052"/>
<defs>
<clipPath id="clip0_159_1545">
<rect width="54" height="48" fill="white"/>
</clipPath>
</defs>
</svg>
